<svg xmlns="http://www.w3.org/2000/svg" xmlns:xlink="http://www.w3.org/1999/xlink" xmlns:lucid="lucid" width="880" height="460"><g transform="translate(-300 -120)" lucid:page-tab-id="0_0"><path d="M320 140h160v260H320z" stroke="#000" stroke-width="2" fill="#fff"/><use xlink:href="#a" transform="matrix(1,0,0,1,336,156) translate(12.099999999999994 14.4)"/><use xlink:href="#b" transform="matrix(1,0,0,1,336,156) translate(99.95 14.4)"/><path d="M800 190h160v120H800z" stroke="#000" stroke-width="2" fill="#fff"/><use xlink:href="#c" transform="matrix(1,0,0,1,805,195) translate(37 59.0875)"/><path d="M600 440h160v120H600z" stroke="#000" stroke-width="2" fill="#fff"/><use xlink:href="#d" transform="matrix(1,0,0,1,605,445) translate(14.099999999999994 48.775)"/><use xlink:href="#e" transform="matrix(1,0,0,1,605,445) translate(80.95 48.775)"/><use xlink:href="#f" transform="matrix(1,0,0,1,605,445) translate(26.074999999999996 70.375)"/><use xlink:href="#g" transform="matrix(1,0,0,1,605,445) translate(78.975 70.375)"/><path d="M979.5 250h79.5" stroke="#000" stroke-width="2" fill="none"/><path d="M964.24 250l14.26-4.64v9.28z" stroke="#000" stroke-width="2"/><path d="M1060 251h-1.03v-2h1.03z"/><path d="M1060 220h100v60h-100z" stroke="#000" stroke-opacity="0" stroke-width="2" fill="#fff" fill-opacity="0"/><use xlink:href="#h" transform="matrix(1,0,0,1,1065,225) translate(19 17.525)"/><use xlink:href="#i" transform="matrix(1,0,0,1,1065,225) translate(22.025 39.125)"/><path d="M442 220c15.46 0 28 13.43 28 30s-12.54 30-28 30h-84c-15.46 0-28-13.43-28-30s12.54-30 28-30z" stroke="#000" stroke-width="2" fill="#fff"/><use xlink:href="#j" transform="matrix(1,0,0,1,335,225) translate(17.805 17.525)"/><use xlink:href="#k" transform="matrix(1,0,0,1,335,225) translate(65.70500000000001 17.525)"/><use xlink:href="#l" transform="matrix(1,0,0,1,335,225) translate(38.555 39.125)"/><path d="M442 320c15.46 0 28 13.43 28 30s-12.54 30-28 30h-84c-15.46 0-28-13.43-28-30s12.54-30 28-30z" stroke="#000" stroke-width="2" fill="#fff"/><use xlink:href="#m" transform="matrix(1,0,0,1,335,325) translate(19.075000000000003 30.025)"/><use xlink:href="#n" transform="matrix(1,0,0,1,335,325) translate(62.975 30.025)"/><path d="M472 350h63v150h45.5" stroke="#000" stroke-width="2" fill="none"/><path d="M472.03 351h-1.1l.07-.98-.03-1.02h1.06z"/><path d="M595.76 500l-14.26 4.64v-9.28z" stroke="#000" stroke-width="2"/><path d="M520 180h240v60H520z" stroke="#000" stroke-opacity="0" stroke-width="2" fill="#fff" fill-opacity="0"/><use xlink:href="#o" transform="matrix(1,0,0,1,525,185) translate(60.724999999999994 30.025)"/><use xlink:href="#p" transform="matrix(1,0,0,1,525,185) translate(102.32499999999999 30.025)"/><path d="M400 282v36" stroke="#000" stroke-width="2" fill="none"/><path d="M401 282.03h-2V281h2zM401 319h-2v-1.03h2z"/><use xlink:href="#q" transform="matrix(1,0,0,1,361.15,289.2) translate(0 14.4)"/><path d="M483.98 231.9H798" stroke="#000" stroke-width="2" fill="none"/><path d="M468.72 231.9l14.26-4.65v9.27z" stroke="#000" stroke-width="2"/><path d="M799 232.9h-1.03v-2H799z"/><path d="M469.25 262.93H780.5" stroke="#000" stroke-width="2" fill="none"/><path d="M469.27 263.93h-1.46l.9-2h.57z"/><path d="M795.76 262.93l-14.26 4.64v-9.27z" stroke="#000" stroke-width="2"/><path d="M520 250h240v60H520z" stroke="#000" stroke-opacity="0" stroke-width="2" fill="#fff" fill-opacity="0"/><g><use xlink:href="#r" transform="matrix(1,0,0,1,525,255) translate(74.525 30.025)"/></g><defs><path d="M233-177c-1 41-23 64-60 70L243 0h-38l-65-103H63V0H30v-248c88 3 205-21 203 71zM63-129c60-2 137 13 137-47 0-61-80-42-137-45v92" id="s"/><path d="M141-36C126-15 110 5 73 4 37 3 15-17 15-53c-1-64 63-63 125-63 3-35-9-54-41-54-24 1-41 7-42 31l-33-3c5-37 33-52 76-52 45 0 72 20 72 64v82c-1 20 7 32 28 27v20c-31 9-61-2-59-35zM48-53c0 20 12 33 32 33 41-3 63-29 60-74-43 2-92-5-92 41" id="t"/><path d="M135-143c-3-34-86-38-87 0 15 53 115 12 119 90S17 21 10-45l28-5c4 36 97 45 98 0-10-56-113-15-118-90-4-57 82-63 122-42 12 7 21 19 24 35" id="u"/><path d="M115-194c55 1 70 41 70 98S169 2 115 4C84 4 66-9 55-30l1 105H24l-1-265h31l2 30c10-21 28-34 59-34zm-8 174c40 0 45-34 45-75s-6-73-45-74c-42 0-51 32-51 76 0 43 10 73 51 73" id="v"/><path d="M115-194c53 0 69 39 70 98 0 66-23 100-70 100C84 3 66-7 56-30L54 0H23l1-261h32v101c10-23 28-34 59-34zm-8 174c40 0 45-34 45-75 0-40-5-75-45-74-42 0-51 32-51 76 0 43 10 73 51 73" id="w"/><path d="M100-194c63 0 86 42 84 106H49c0 40 14 67 53 68 26 1 43-12 49-29l28 8c-11 28-37 45-77 45C44 4 14-33 15-96c1-61 26-98 85-98zm52 81c6-60-76-77-97-28-3 7-6 17-6 28h103" id="x"/><path d="M114-163C36-179 61-72 57 0H25l-1-190h30c1 12-1 29 2 39 6-27 23-49 58-41v29" id="y"/><path d="M179-190L93 31C79 59 56 82 12 73V49c39 6 53-20 64-50L1-190h34L92-34l54-156h33" id="z"/><g id="a"><use transform="matrix(0.05,0,0,0.05,0,0)" xlink:href="#s"/><use transform="matrix(0.05,0,0,0.05,12.950000000000001,0)" xlink:href="#t"/><use transform="matrix(0.05,0,0,0.05,22.950000000000003,0)" xlink:href="#u"/><use transform="matrix(0.05,0,0,0.05,31.950000000000003,0)" xlink:href="#v"/><use transform="matrix(0.05,0,0,0.05,41.95,0)" xlink:href="#w"/><use transform="matrix(0.05,0,0,0.05,51.95,0)" xlink:href="#x"/><use transform="matrix(0.05,0,0,0.05,61.95,0)" xlink:href="#y"/><use transform="matrix(0.05,0,0,0.05,67.9,0)" xlink:href="#y"/><use transform="matrix(0.05,0,0,0.05,73.85000000000001,0)" xlink:href="#z"/></g><path d="M30-248c87 1 191-15 191 75 0 78-77 80-158 76V0H30v-248zm33 125c57 0 124 11 124-50 0-59-68-47-124-48v98" id="A"/><path d="M24-231v-30h32v30H24zM24 0v-190h32V0H24" id="B"/><g id="b"><use transform="matrix(0.05,0,0,0.05,0,0)" xlink:href="#A"/><use transform="matrix(0.05,0,0,0.05,12,0)" xlink:href="#B"/></g><path d="M30 0v-248h187v28H63v79h144v27H63v87h162V0H30" id="C"/><path d="M185-189c-5-48-123-54-124 2 14 75 158 14 163 119 3 78-121 87-175 55-17-10-28-26-33-46l33-7c5 56 141 63 141-1 0-78-155-14-162-118-5-82 145-84 179-34 5 7 8 16 11 25" id="D"/><path d="M134-131c28 9 52 24 51 62-1 50-34 73-85 73S17-19 16-69c0-36 21-54 49-61-75-25-45-126 34-121 46 3 78 18 79 63 0 33-17 51-44 57zm-34-11c31 1 46-15 46-44 0-28-17-43-47-42-29 0-46 13-45 42 1 28 16 44 46 44zm1 122c35 0 51-18 51-52 0-30-18-46-53-46-33 0-51 17-51 47 0 34 19 51 53 51" id="E"/><path d="M101-251c82-7 93 87 43 132L82-64C71-53 59-42 53-27h129V0H18c2-99 128-94 128-182 0-28-16-43-45-43s-46 15-49 41l-32-3c6-41 34-60 81-64" id="F"/><path d="M110-160c48 1 74 30 74 79 0 53-28 85-80 85-65 0-83-55-86-122-5-90 50-162 133-122 14 7 22 21 27 39l-31 6c-5-40-67-38-82-6-9 19-15 44-15 74 11-20 30-34 60-33zm-7 138c34 0 49-23 49-58s-16-56-50-56c-29 0-50 16-49 49 1 36 15 65 50 65" id="G"/><g id="c"><use transform="matrix(0.05,0,0,0.05,0,0)" xlink:href="#C"/><use transform="matrix(0.05,0,0,0.05,12,0)" xlink:href="#D"/><use transform="matrix(0.05,0,0,0.05,24,0)" xlink:href="#A"/><use transform="matrix(0.05,0,0,0.05,36,0)" xlink:href="#E"/><use transform="matrix(0.05,0,0,0.05,46,0)" xlink:href="#F"/><use transform="matrix(0.05,0,0,0.05,56,0)" xlink:href="#G"/><use transform="matrix(0.05,0,0,0.05,66,0)" xlink:href="#G"/></g><path d="M127-220V0H93v-220H8v-28h204v28h-85" id="H"/><path d="M16-82v-28h88v28H16" id="I"/><path d="M30 0v-248h33v221h125V0H30" id="J"/><path d="M117-194c89-4 53 116 60 194h-32v-121c0-31-8-49-39-48C34-167 62-67 57 0H25l-1-190h30c1 10-1 24 2 32 11-22 29-35 61-36" id="K"/><path d="M143 0L79-87 56-68V0H24v-261h32v163l83-92h37l-77 82L181 0h-38" id="L"/><g id="d"><use transform="matrix(0.05,0,0,0.05,0,0)" xlink:href="#H"/><use transform="matrix(0.05,0,0,0.05,10.950000000000001,0)" xlink:href="#A"/><use transform="matrix(0.05,0,0,0.05,22.950000000000003,0)" xlink:href="#I"/><use transform="matrix(0.05,0,0,0.05,28.900000000000002,0)" xlink:href="#J"/><use transform="matrix(0.05,0,0,0.05,38.900000000000006,0)" xlink:href="#B"/><use transform="matrix(0.05,0,0,0.05,42.85000000000001,0)" xlink:href="#K"/><use transform="matrix(0.05,0,0,0.05,52.85,0)" xlink:href="#L"/></g><path d="M197 0v-115H63V0H30v-248h33v105h134v-105h34V0h-34" id="M"/><path d="M27 0v-27h64v-190l-56 39v-29l58-41h29v221h61V0H27" id="N"/><path d="M101-251c68 0 85 55 85 127S166 4 100 4C33 4 14-52 14-124c0-73 17-127 87-127zm-1 229c47 0 54-49 54-102s-4-102-53-102c-51 0-55 48-55 102 0 53 5 102 54 102" id="O"/><g id="e"><use transform="matrix(0.05,0,0,0.05,0,0)" xlink:href="#M"/><use transform="matrix(0.05,0,0,0.05,12.950000000000001,0)" xlink:href="#D"/><use transform="matrix(0.05,0,0,0.05,24.950000000000003,0)" xlink:href="#N"/><use transform="matrix(0.05,0,0,0.05,34.95,0)" xlink:href="#O"/><use transform="matrix(0.05,0,0,0.05,44.95,0)" xlink:href="#O"/></g><path d="M210-169c-67 3-38 105-44 169h-31v-121c0-29-5-50-35-48C34-165 62-65 56 0H25l-1-190h30c1 10-1 24 2 32 10-44 99-50 107 0 11-21 27-35 58-36 85-2 47 119 55 194h-31v-121c0-29-5-49-35-48" id="P"/><path d="M59-47c-2 24 18 29 38 22v24C64 9 27 4 27-40v-127H5v-23h24l9-43h21v43h35v23H59v120" id="Q"/><g id="f"><use transform="matrix(0.05,0,0,0.05,0,0)" xlink:href="#D"/><use transform="matrix(0.05,0,0,0.05,12,0)" xlink:href="#P"/><use transform="matrix(0.05,0,0,0.05,26.950000000000003,0)" xlink:href="#t"/><use transform="matrix(0.05,0,0,0.05,36.95,0)" xlink:href="#y"/><use transform="matrix(0.05,0,0,0.05,42.900000000000006,0)" xlink:href="#Q"/></g><path d="M24 0v-261h32V0H24" id="R"/><path d="M84 4C-5 8 30-112 23-190h32v120c0 31 7 50 39 49 72-2 45-101 50-169h31l1 190h-30c-1-10 1-25-2-33-11 22-28 36-60 37" id="S"/><path d="M177-190C167-65 218 103 67 71c-23-6-38-20-44-43l32-5c15 47 100 32 89-28v-30C133-14 115 1 83 1 29 1 15-40 15-95c0-56 16-97 71-98 29-1 48 16 59 35 1-10 0-23 2-32h30zM94-22c36 0 50-32 50-73 0-42-14-75-50-75-39 0-46 34-46 75s6 73 46 73" id="T"/><g id="g"><use transform="matrix(0.05,0,0,0.05,0,0)" xlink:href="#A"/><use transform="matrix(0.05,0,0,0.05,12,0)" xlink:href="#R"/><use transform="matrix(0.05,0,0,0.05,15.949999999999998,0)" xlink:href="#S"/><use transform="matrix(0.05,0,0,0.05,25.950000000000003,0)" xlink:href="#T"/><use transform="matrix(0.05,0,0,0.05,35.95,0)" xlink:href="#u"/></g><path d="M160-131c35 5 61 23 61 61C221 17 115-2 30 0v-248c76 3 177-17 177 60 0 33-19 50-47 57zm-97-11c50-1 110 9 110-42 0-47-63-36-110-37v79zm0 115c55-2 124 14 124-45 0-56-70-42-124-44v89" id="U"/><path d="M100-194c62-1 85 37 85 99 1 63-27 99-86 99S16-35 15-95c0-66 28-99 85-99zM99-20c44 1 53-31 53-75 0-43-8-75-51-75s-53 32-53 75 10 74 51 75" id="V"/><g id="h"><use transform="matrix(0.05,0,0,0.05,0,0)" xlink:href="#U"/><use transform="matrix(0.05,0,0,0.05,12,0)" xlink:href="#S"/><use transform="matrix(0.05,0,0,0.05,22,0)" xlink:href="#Q"/><use transform="matrix(0.05,0,0,0.05,27,0)" xlink:href="#Q"/><use transform="matrix(0.05,0,0,0.05,32,0)" xlink:href="#V"/><use transform="matrix(0.05,0,0,0.05,42,0)" xlink:href="#K"/></g><g id="i"><use transform="matrix(0.05,0,0,0.05,0,0)" xlink:href="#A"/><use transform="matrix(0.05,0,0,0.05,12,0)" xlink:href="#y"/><use transform="matrix(0.05,0,0,0.05,17.95,0)" xlink:href="#x"/><use transform="matrix(0.05,0,0,0.05,27.950000000000003,0)" xlink:href="#u"/><use transform="matrix(0.05,0,0,0.05,36.95,0)" xlink:href="#u"/></g><path d="M63-220v92h138v28H63V0H30v-248h175v28H63" id="W"/><g id="j"><use transform="matrix(0.05,0,0,0.05,0,0)" xlink:href="#W"/><use transform="matrix(0.05,0,0,0.05,10.950000000000001,0)" xlink:href="#R"/><use transform="matrix(0.05,0,0,0.05,14.9,0)" xlink:href="#t"/><use transform="matrix(0.05,0,0,0.05,24.900000000000002,0)" xlink:href="#u"/><use transform="matrix(0.05,0,0,0.05,33.900000000000006,0)" xlink:href="#L"/></g><g id="k"><use transform="matrix(0.05,0,0,0.05,0,0)" xlink:href="#M"/><use transform="matrix(0.05,0,0,0.05,12.950000000000001,0)" xlink:href="#H"/><use transform="matrix(0.05,0,0,0.05,23.900000000000002,0)" xlink:href="#H"/><use transform="matrix(0.05,0,0,0.05,34.85,0)" xlink:href="#A"/></g><path d="M108 0H70L1-190h34L89-25l56-165h34" id="X"/><g id="l"><use transform="matrix(0.05,0,0,0.05,0,0)" xlink:href="#D"/><use transform="matrix(0.05,0,0,0.05,12,0)" xlink:href="#x"/><use transform="matrix(0.05,0,0,0.05,22,0)" xlink:href="#y"/><use transform="matrix(0.05,0,0,0.05,27.950000000000003,0)" xlink:href="#X"/><use transform="matrix(0.05,0,0,0.05,36.95,0)" xlink:href="#x"/><use transform="matrix(0.05,0,0,0.05,46.95,0)" xlink:href="#y"/></g><g id="m"><use transform="matrix(0.05,0,0,0.05,0,0)" xlink:href="#U"/><use transform="matrix(0.05,0,0,0.05,12,0)" xlink:href="#R"/><use transform="matrix(0.05,0,0,0.05,15.949999999999998,0)" xlink:href="#B"/><use transform="matrix(0.05,0,0,0.05,19.9,0)" xlink:href="#K"/><use transform="matrix(0.05,0,0,0.05,29.899999999999995,0)" xlink:href="#L"/></g><path d="M106-169C34-169 62-67 57 0H25v-261h32l-1 103c12-21 28-36 61-36 89 0 53 116 60 194h-32v-121c2-32-8-49-39-48" id="Y"/><g id="n"><use transform="matrix(0.05,0,0,0.05,0,0)" xlink:href="#J"/><use transform="matrix(0.05,0,0,0.05,10,0)" xlink:href="#B"/><use transform="matrix(0.05,0,0,0.05,13.949999999999998,0)" xlink:href="#T"/><use transform="matrix(0.05,0,0,0.05,23.95,0)" xlink:href="#Y"/><use transform="matrix(0.05,0,0,0.05,33.95,0)" xlink:href="#Q"/><use transform="matrix(0.05,0,0,0.05,38.95,0)" xlink:href="#u"/></g><path d="M143 4C61 4 22-44 18-125c-5-107 100-154 193-111 17 8 29 25 37 43l-32 9c-13-25-37-40-76-40-61 0-88 39-88 99 0 61 29 100 91 101 35 0 62-11 79-27v-45h-74v-28h105v86C228-13 192 4 143 4" id="Z"/><g id="o"><use transform="matrix(0.05,0,0,0.05,0,0)" xlink:href="#Z"/><use transform="matrix(0.05,0,0,0.05,14,0)" xlink:href="#C"/><use transform="matrix(0.05,0,0,0.05,26,0)" xlink:href="#H"/></g><path d="M145-31C134-9 116 4 85 4 32 4 16-35 15-94c0-59 17-99 70-100 32-1 48 14 60 33 0-11-1-24 2-32h30l-1 268h-32zM93-21c41 0 51-33 51-76s-8-73-50-73c-40 0-46 35-46 75s5 74 45 74" id="aa"/><g id="p"><use transform="matrix(0.05,0,0,0.05,0,0)" xlink:href="#s"/><use transform="matrix(0.05,0,0,0.05,12.950000000000001,0)" xlink:href="#x"/><use transform="matrix(0.05,0,0,0.05,22.950000000000003,0)" xlink:href="#aa"/><use transform="matrix(0.05,0,0,0.05,32.95,0)" xlink:href="#S"/><use transform="matrix(0.05,0,0,0.05,42.95,0)" xlink:href="#x"/><use transform="matrix(0.05,0,0,0.05,52.95,0)" xlink:href="#u"/><use transform="matrix(0.05,0,0,0.05,61.95,0)" xlink:href="#Q"/></g><path d="M212-179c-10-28-35-45-73-45-59 0-87 40-87 99 0 60 29 101 89 101 43 0 62-24 78-52l27 14C228-24 195 4 139 4 59 4 22-46 18-125c-6-104 99-153 187-111 19 9 31 26 39 46" id="ab"/><g id="q"><use transform="matrix(0.05,0,0,0.05,0,0)" xlink:href="#ab"/><use transform="matrix(0.05,0,0,0.05,12.950000000000001,0)" xlink:href="#t"/><use transform="matrix(0.05,0,0,0.05,22.950000000000003,0)" xlink:href="#R"/><use transform="matrix(0.05,0,0,0.05,26.900000000000002,0)" xlink:href="#R"/></g><g id="r"><use transform="matrix(0.05,0,0,0.05,0,0)" xlink:href="#s"/><use transform="matrix(0.05,0,0,0.05,12.950000000000001,0)" xlink:href="#x"/><use transform="matrix(0.05,0,0,0.05,22.950000000000003,0)" xlink:href="#u"/><use transform="matrix(0.05,0,0,0.05,31.950000000000003,0)" xlink:href="#v"/><use transform="matrix(0.05,0,0,0.05,41.95,0)" xlink:href="#V"/><use transform="matrix(0.05,0,0,0.05,51.95,0)" xlink:href="#K"/><use transform="matrix(0.05,0,0,0.05,61.95,0)" xlink:href="#u"/><use transform="matrix(0.05,0,0,0.05,70.95,0)" xlink:href="#x"/></g></defs></g></svg>